<svg xmlns="http://www.w3.org/2000/svg" viewBox="-0.56 -0.82 120 60" width="120" height="60"><path d="M94.44 16.633v25.094h17.5V16.633zm14.6 22.205H97.33v-11.06h8.172v-4.045h3.467V38.84zm-8.17-8.172h4.705v5.283h-4.705z"/><path d="M44.25 28.272v-4.045h-2.3v4.045h-1.733v2.394h1.733v8.172h4.705v-2.394H44.25v-5.778h2.394v-2.394zm5.862 2.394h5.86V32.4H47.8v6.44h10.483V28.272H50.1zm5.86 5.778h-5.86V34.7h5.86zm3.468-8.172h2.3v10.483h-2.3zm-26.828 2.394h4.045v8.172h2.394V28.272H30.3v10.566h2.3zm-15.2 5.778H9.25v-5.778h8.172v-2.394H6.94v10.566h10.483zm1.157-6.108v8.42h10.483V28.272H18.58zm2.394.33h5.86v5.86h-5.86zm38.466-6.44h2.3v2.3h-2.3zm26.828 4.045h-2.3v10.566h2.3v-8.172h6.44V28.27zM65.3 30.666h4.045v8.172h2.3V28.272h-8.75v10.566H65.3zm7.595-2.394v10.483h8.75v-2.3h-6.44V34.7H82.8v-6.44h-8.75zm2.3 2.394H80.5V32.4h-5.283z" opacity=".66"/></svg>