<?xml version="1.0" encoding="UTF-8"?><svg xmlns="http://www.w3.org/2000/svg" xmlns:xlink="http://www.w3.org/1999/xlink" viewBox="0 0 579.72 249.58"><defs><style>.o{fill:url(#k);}.p{fill:url(#m);}.q{fill:url(#l);}.r{fill:#fff;}</style><linearGradient id="k" x1="103.68" y1="114.84" x2="138.64" y2="114.84" gradientTransform="matrix(1, 0, 0, 1, 0, 0)" gradientUnits="userSpaceOnUse"><stop offset="0" stop-color="#00d2ff"/><stop offset=".46" stop-color="#00d2ff"/><stop offset=".6" stop-color="#00caf6"/><stop offset=".83" stop-color="#00b5de"/><stop offset=".99" stop-color="#00a4ca"/></linearGradient><linearGradient id="l" x1="108.78" y1="131.91" x2="144.42" y2="131.91" gradientTransform="matrix(1, 0, 0, 1, 0, 0)" gradientUnits="userSpaceOnUse"><stop offset="0" stop-color="#514d64"/><stop offset=".12" stop-color="#525571"/><stop offset=".38" stop-color="#556489"/><stop offset=".54" stop-color="#576a92"/><stop offset="1" stop-color="#576a92"/></linearGradient><linearGradient id="m" x1="112.26" y1="154.79" x2="112.26" y2="103.9" gradientTransform="matrix(1, 0, 0, 1, 0, 0)" gradientUnits="userSpaceOnUse"><stop offset="0" stop-color="#e84f2a"/><stop offset=".46" stop-color="#e84f2a"/><stop offset=".62" stop-color="#df4b29"/><stop offset=".87" stop-color="#c74229"/><stop offset="1" stop-color="#b83d29"/></linearGradient></defs><g id="a"/><g id="b"/><g id="c"/><g id="d"/><g id="e"/><g id="f"/><g id="g"/><g id="h"/><g id="i"/><g id="j"><g><path class="o" d="M137.58,110.46c-3.7-5.47-7.64-9.72-10.92-12.76-4.17-3.87-10.63-3.87-14.8,0-2.48,2.3-5.33,5.29-8.18,8.97,6.32-6.71,11.6,.43,15.58,4.33,.12,.12,.24,.25,.37,.37,1.5,1.55,3.29,3.69,4.92,6.04,.68,.98,1.33,2,1.92,3.02,1.66,2.88,2.84,5.83,2.84,8.25s-.8,4.49-2.15,6.2c8.35-2.58,13.93-15.39,10.43-24.42Z"/><path class="q" d="M137.49,110.33v.02h0c-.12,.8-.23,1.59-.35,2.37v.02c-.04,.26-.08,.52-.12,.77v.02c-.04,.21-.07,.42-.1,.63,0,.05-.02,.11-.03,.16-.03,.2-.07,.39-.1,.59-.01,.06-.02,.13-.03,.2-.03,.19-.07,.39-.1,.58-.01,.07-.02,.13-.04,.2-.03,.19-.07,.37-.11,.56-.01,.07-.03,.15-.04,.22-.03,.17-.07,.35-.11,.52-.02,.08-.03,.17-.05,.25-.03,.17-.07,.33-.11,.5-.02,.09-.04,.18-.06,.27-.04,.16-.07,.31-.11,.47-.02,.1-.05,.2-.07,.3-.04,.15-.08,.3-.12,.46-.03,.1-.05,.2-.08,.3-.04,.14-.08,.29-.12,.43-.03,.11-.06,.22-.09,.33-.04,.14-.08,.29-.13,.43-.03,.11-.06,.22-.1,.33-.04,.14-.09,.28-.13,.42-.04,.11-.07,.22-.11,.33-.04,.13-.09,.26-.14,.4-.04,.12-.08,.24-.12,.36-.05,.14-.1,.28-.16,.42-.04,.11-.08,.22-.12,.33-.06,.15-.11,.29-.17,.44-.04,.11-.08,.21-.13,.32-.06,.14-.12,.27-.17,.41-.05,.11-.1,.23-.15,.34-.06,.13-.12,.26-.18,.39-.05,.12-.11,.24-.16,.36-.06,.13-.13,.26-.19,.39-.06,.12-.12,.24-.18,.37-.07,.13-.14,.26-.21,.39-.06,.12-.12,.24-.19,.36-.07,.12-.14,.25-.21,.37-.07,.13-.14,.25-.21,.38-.07,.11-.14,.23-.2,.34-.08,.14-.16,.28-.25,.41-.08,.13-.16,.26-.24,.38-.08,.12-.16,.25-.24,.37-.09,.13-.18,.27-.27,.4-.08,.12-.16,.24-.24,.35-.09,.13-.19,.26-.29,.4-.09,.12-.17,.24-.26,.36-.1,.14-.21,.28-.32,.42-.09,.11-.17,.23-.26,.34-.12,.16-.26,.32-.38,.48-.08,.1-.15,.19-.23,.29-.11,.13-.22,.26-.33,.39-.11,.12-.21,.25-.32,.37-.1,.11-.2,.22-.3,.34-.13,.14-.26,.29-.39,.43-.24,.26-.48,.51-.73,.77-.12,.16-.25,.31-.38,.46l-.02,.02s-.07,.07-.1,.11c-.09,.1-.19,.2-.29,.3h0l-.03,.04s-.08,.07-.11,.1c-.09,.09-.19,.18-.28,.26-.05,.04-.09,.08-.14,.12-.11,.09-.21,.18-.32,.27-.02,.01-.04,.03-.05,.04l-.02,.02h0l-.03,.03h0s-.05,.04-.08,.06c-.09,.07-.19,.14-.29,.21-.04,.03-.07,.06-.11,.08h-.01s-.05,.04-.08,.06c-.26,.17-.54,.34-.82,.48l-.06,.03c-.34,.18-.69,.34-1.05,.48-.06,.02-.12,.05-.18,.07-.16,.06-.32,.11-.49,.16-.05,.01-.1,.03-.15,.04-.12,.04-.25,.07-.37,.1-.05,.01-.1,.03-.15,.04-.34,.08-.68,.14-1.03,.18-.05,0-.1,.01-.16,.02-.13,.01-.26,.03-.39,.03-.05,0-.1,0-.16,.01-.18,0-.36,.02-.54,.02s-.37,0-.55-.02h-.03c-.18-.01-.35-.03-.53-.05h0c-.2-.02-.4-.05-.6-.08h-.02c-.38-.07-.75-.15-1.11-.26h0c-.45-.13-.88-.29-1.3-.48h0c-.06-.03-.11-.05-.17-.08-.07-.03-.14-.07-.21-.1l-.04-.02c-.05-.03-.11-.06-.16-.09-.08-.04-.16-.09-.24-.13h-.01c-.7-.41-1.35-.89-1.93-1.45l-.06-.06-.05-.05c-.08-.07-.15-.15-.23-.23h-.01s-.07-.08-.1-.12c-.03-.03-.06-.06-.09-.1h0s-.04-.04-.06-.06c-.08-.09-.16-.19-.24-.28-.01-.01-.02-.03-.03-.04-.27-.33-.52-.68-.75-1.05l-.02-.02c-.05-.09-.1-.18-.16-.27-.03-.04-.05-.09-.08-.13-.02-.03-.03-.06-.04-.08-.05-.1-.1-.19-.15-.29l-.02-.04h0c-.2-.4-.37-.82-.52-1.24v-.04c-.04-.08-.06-.16-.09-.24-.02-.06-.04-.11-.05-.17v-.04h-.01s-.01-.05-.02-.07c-.16-.58-.27-1.18-.32-1.79h0c-.02-.2-.03-.4-.03-.59h-.43v2.26h.52c.02,.28,.04,.57,.06,.86,0,.07,.01,.13,.02,.2,.05,.6,.13,1.23,.23,1.88,0,.05,.02,.11,.03,.16,.11,.67,.24,1.35,.4,2.04l.03,.12c.17,.7,.36,1.42,.6,2.13l.03,.1c.12,.36,.25,.72,.39,1.08,1.88,4.88,5.57,9.58,12.56,11.44,2.36,.52,2.63,1.8,3.8,2.27,4.65-1.56,8.69-4.46,11.66-8.24,3.33-4.24,5.33-9.58,5.33-15.39,0-9.48-6.14-18.37-6.93-19.54Z"/><path class="p" d="M109.22,129.14h0c0-.15-.01-.31-.01-.46h0c0-.18,0-.35,.02-.52h0c.37-5.55,6.29-13.44,10.03-17.17-3.98-3.89-9.26-11.04-15.58-4.33-.73,.94-1.45,1.92-2.17,2.95-4.04,7.06-6.92,14.3-6.92,20.26,0,.74,.04,1.46,.1,2.18,1.11,12.74,11.79,22.73,24.82,22.73,3.73,0,7.26-.82,10.43-2.29-11.56-1.61-20.48-11.42-20.72-23.36Z"/></g><g><path class="r" d="M159.49,140.35v-41.34h8.92v33.59h17.71v7.75h-26.63Z"/><path class="r" d="M191.09,102.48c0-2.6,2.2-4.65,4.77-4.65s4.77,2.05,4.77,4.65-2.14,4.71-4.77,4.71-4.77-2.11-4.77-4.71Zm.82,37.87v-29.94h7.98v29.94h-7.98Z"/><path class="r" d="M206.47,125.35c0-9.98,5.65-15.68,13.44-15.68,3.71,0,7.04,1.61,9.36,4.52v-3.78h8.04v41.34h-8.04v-15.25c-2.45,3.1-5.78,4.59-9.36,4.59-7.79,0-13.44-5.76-13.44-15.74Zm22.8,5.33v-10.6c-1.32-1.92-4.27-3.41-6.85-3.41-4.52,0-7.66,3.53-7.66,8.68s3.14,8.74,7.66,8.74c2.58,0,5.53-1.55,6.85-3.41Z"/><path class="r" d="M266.14,140.35v-3.78c-2.07,2.29-5.72,4.52-10.68,4.52-6.66,0-9.8-3.59-9.8-9.42v-21.26h7.98v18.16c0,4.15,2.2,5.52,5.59,5.52,3.08,0,5.53-1.67,6.91-3.41v-20.27h7.98v29.94h-7.98Z"/><path class="r" d="M281.75,102.48c0-2.6,2.2-4.65,4.77-4.65s4.77,2.05,4.77,4.65-2.14,4.71-4.77,4.71-4.77-2.11-4.77-4.71Zm.82,37.87v-29.94h7.98v29.94h-7.98Z"/><path class="r" d="M319.98,140.35v-3.84c-2.39,2.98-5.72,4.59-9.36,4.59-7.66,0-13.44-5.7-13.44-15.68s5.72-15.74,13.44-15.74c3.58,0,6.97,1.55,9.36,4.59v-15.25h8.04v41.34h-8.04Zm0-9.67v-10.6c-1.32-1.98-4.21-3.41-6.91-3.41-4.52,0-7.66,3.53-7.66,8.74s3.14,8.68,7.66,8.68c2.7,0,5.59-1.43,6.91-3.41Z"/><path class="r" d="M373.39,140.35v-20.33c0-3.78-1.7-6.2-5.59-6.2-3.14,0-6.47,2.23-8.04,4.59v21.94h-4.71v-20.33c0-3.78-1.63-6.2-5.59-6.2-3.08,0-6.34,2.23-7.98,4.65v21.88h-4.71v-29.94h4.71v4.34c1.26-1.92,5.34-5.08,9.8-5.08s7.29,2.48,8.17,5.58c1.7-2.73,5.78-5.58,10.18-5.58,5.53,0,8.48,3.04,8.48,9.05v21.63h-4.71Z"/><path class="r" d="M386.35,125.35c0-8.68,6.28-15.68,14.95-15.68,9.17,0,14.57,7.07,14.57,16.05v1.18h-24.56c.38,5.64,4.4,10.35,10.93,10.35,3.45,0,6.97-1.36,9.36-3.78l2.26,3.04c-3.01,2.98-7.1,4.59-12.06,4.59-8.98,0-15.45-6.38-15.45-15.74Zm14.89-11.84c-6.47,0-9.67,5.39-9.92,9.98h19.91c-.06-4.46-3.08-9.98-9.99-9.98Z"/><path class="r" d="M424.87,134.09v-19.59h-5.03v-4.09h5.03v-8.18h4.71v8.18h6.16v4.09h-6.16v18.59c0,2.23,1.01,3.84,3.08,3.84,1.32,0,2.58-.56,3.2-1.24l1.38,3.47c-1.19,1.12-2.89,1.92-5.65,1.92-4.46,0-6.72-2.54-6.72-7Z"/><path class="r" d="M462.3,140.35v-3.41c-2.51,2.73-5.97,4.15-10.05,4.15-5.15,0-10.62-3.41-10.62-9.92s5.47-9.85,10.62-9.85c4.15,0,7.6,1.3,10.05,4.09v-5.39c0-4.03-3.27-6.32-7.66-6.32-3.64,0-6.6,1.3-9.3,4.15l-2.2-3.22c3.27-3.35,7.16-4.96,12.12-4.96,6.41,0,11.75,2.85,11.75,10.1v20.58h-4.71Zm0-6.32v-5.64c-1.82-2.48-5.02-3.72-8.35-3.72-4.4,0-7.47,2.73-7.47,6.57s3.08,6.51,7.47,6.51c3.33,0,6.53-1.24,8.35-3.72Z"/><path class="r" d="M476.94,140.35v-41.34h4.71v41.34h-4.71Z"/></g></g><g id="n"/></svg>