<?xml version="1.0" encoding="UTF-8"?><svg id="a" xmlns="http://www.w3.org/2000/svg" xmlns:xlink="http://www.w3.org/1999/xlink" viewBox="0 0 49.84 60"><defs><style>.d{fill:url(#c);}.e{fill:url(#b);}.f{fill:#33304a;}</style><linearGradient id="b" x1="9.09" y1="20.05" x2="44.05" y2="20.05" gradientTransform="matrix(1, 0, 0, 1, 0, 0)" gradientUnits="userSpaceOnUse"><stop offset="0" stop-color="#00d2ff"/><stop offset=".46" stop-color="#00d2ff"/><stop offset=".6" stop-color="#00caf6"/><stop offset=".83" stop-color="#00b5de"/><stop offset=".99" stop-color="#00a4ca"/></linearGradient><linearGradient id="c" x1="17.67" y1="60" x2="17.67" y2="9.11" gradientTransform="matrix(1, 0, 0, 1, 0, 0)" gradientUnits="userSpaceOnUse"><stop offset="0" stop-color="#e8502a"/><stop offset=".46" stop-color="#e8502a"/><stop offset=".62" stop-color="#df4c29"/><stop offset=".87" stop-color="#c74229"/><stop offset="1" stop-color="#b83c29"/></linearGradient></defs><path class="e" d="M42.99,15.67c-3.7-5.47-7.64-9.72-10.92-12.76-4.17-3.87-10.63-3.87-14.8,0-2.48,2.3-5.33,5.29-8.18,8.97,6.32-6.71,11.6,.43,15.58,4.33,.12,.12,.24,.25,.37,.37,1.5,1.55,3.29,3.69,4.92,6.04,.68,.98,1.33,2,1.92,3.02,1.66,2.88,2.84,5.83,2.84,8.25s-.8,4.49-2.15,6.2c8.35-2.58,13.93-15.39,10.43-24.42Z"/><path class="f" d="M42.9,15.54v.02h0c-.12,.8-.23,1.59-.35,2.37v.02c-.04,.26-.08,.52-.12,.77v.02c-.04,.21-.07,.42-.1,.63,0,.05-.02,.11-.03,.16-.03,.2-.07,.39-.1,.59-.01,.06-.02,.13-.03,.2-.03,.19-.07,.39-.1,.58-.01,.07-.02,.13-.04,.2-.03,.19-.07,.37-.11,.56-.01,.07-.03,.15-.04,.22-.03,.17-.07,.35-.11,.52-.02,.08-.03,.17-.05,.25-.03,.17-.07,.33-.11,.5-.02,.09-.04,.18-.06,.27-.04,.16-.07,.31-.11,.47-.02,.1-.05,.2-.07,.3-.04,.15-.08,.3-.12,.46-.03,.1-.05,.2-.08,.3-.04,.14-.08,.29-.12,.43-.03,.11-.06,.22-.09,.33-.04,.14-.08,.29-.13,.43-.03,.11-.06,.22-.1,.33-.04,.14-.09,.28-.13,.42-.04,.11-.07,.22-.11,.33-.04,.13-.09,.26-.14,.4-.04,.12-.08,.24-.12,.36-.05,.14-.1,.28-.16,.42-.04,.11-.08,.22-.12,.33-.06,.15-.11,.29-.17,.44-.04,.11-.08,.21-.13,.32-.06,.14-.12,.27-.17,.41-.05,.11-.1,.23-.15,.34-.06,.13-.12,.26-.18,.39-.05,.12-.11,.24-.16,.36-.06,.13-.13,.26-.19,.39-.06,.12-.12,.24-.18,.37-.07,.13-.14,.26-.21,.39-.06,.12-.12,.24-.19,.36-.07,.12-.14,.25-.21,.37-.07,.13-.14,.25-.21,.38-.07,.11-.14,.23-.2,.34-.08,.14-.16,.28-.25,.41-.08,.13-.16,.26-.24,.38-.08,.12-.16,.25-.24,.37-.09,.13-.18,.27-.27,.4-.08,.12-.16,.24-.24,.35-.09,.13-.19,.26-.29,.4-.09,.12-.17,.24-.26,.36-.1,.14-.21,.28-.32,.42-.09,.11-.17,.23-.26,.34-.12,.16-.26,.32-.38,.48-.08,.1-.15,.19-.23,.29-.11,.13-.22,.26-.33,.39-.11,.12-.21,.25-.32,.37-.1,.11-.2,.22-.3,.34-.13,.14-.26,.29-.39,.43-.24,.26-.48,.51-.73,.77-.12,.16-.25,.31-.38,.46l-.02,.02s-.07,.07-.1,.11c-.09,.1-.19,.2-.29,.3h0l-.03,.04s-.08,.07-.11,.1c-.09,.09-.19,.18-.28,.26-.05,.04-.09,.08-.14,.12-.11,.09-.21,.18-.32,.27-.02,.01-.04,.03-.05,.04l-.02,.02h0l-.03,.03h0s-.05,.04-.08,.06c-.09,.07-.19,.14-.29,.21-.04,.03-.07,.06-.11,.08h-.01s-.05,.04-.08,.06c-.26,.17-.54,.34-.82,.48l-.06,.03c-.34,.18-.69,.34-1.05,.48-.06,.02-.12,.05-.18,.07-.16,.06-.32,.11-.49,.16-.05,.01-.1,.03-.15,.04-.12,.04-.25,.07-.37,.1-.05,.01-.1,.03-.15,.04-.34,.08-.68,.14-1.03,.18-.05,0-.1,.01-.16,.02-.13,.01-.26,.03-.39,.03-.05,0-.1,0-.16,.01-.18,0-.36,.02-.54,.02s-.37,0-.55-.02h-.03c-.18-.01-.35-.03-.53-.05h0c-.2-.02-.4-.05-.6-.08h-.02c-.38-.07-.75-.15-1.11-.26h0c-.45-.13-.88-.29-1.3-.48h0c-.06-.03-.11-.05-.17-.08-.07-.03-.14-.07-.21-.1l-.04-.02c-.05-.03-.11-.06-.16-.09-.08-.04-.16-.09-.24-.13h-.01c-.7-.41-1.35-.89-1.93-1.45l-.06-.06-.05-.05c-.08-.07-.15-.15-.23-.23h-.01s-.07-.08-.1-.12c-.03-.03-.06-.06-.09-.1h0s-.04-.04-.06-.06c-.08-.09-.16-.19-.24-.28-.01-.01-.02-.03-.03-.04-.27-.33-.52-.68-.75-1.05l-.02-.02c-.05-.09-.1-.18-.16-.27-.03-.04-.05-.09-.08-.13-.02-.03-.03-.06-.04-.08-.05-.1-.1-.19-.15-.29l-.02-.04h0c-.2-.4-.37-.82-.52-1.24v-.04c-.04-.08-.06-.16-.09-.24-.02-.06-.04-.11-.05-.17v-.04h-.01s-.01-.05-.02-.07c-.16-.58-.27-1.18-.32-1.79h0c-.02-.2-.03-.4-.03-.59h-.43v2.26h.52c.02,.28,.04,.57,.06,.86,0,.07,.01,.13,.02,.2,.05,.6,.13,1.23,.23,1.88,0,.05,.02,.11,.03,.16,.11,.67,.24,1.35,.4,2.04l.03,.12c.17,.7,.36,1.42,.6,2.13l.03,.1c.12,.36,.25,.72,.39,1.08,1.88,4.88,5.57,9.58,12.56,11.44,2.36,.52,2.63,1.8,3.8,2.27,4.65-1.56,8.69-4.46,11.66-8.24,3.33-4.24,5.33-9.58,5.33-15.39,0-9.48-6.14-18.37-6.93-19.54Z"/><path class="d" d="M14.63,34.35h0c0-.15-.01-.31-.01-.46h0c0-.18,0-.35,.02-.52h0c.37-5.55,6.29-13.44,10.03-17.17-3.98-3.89-9.26-11.04-15.58-4.33-.73,.94-1.45,1.92-2.17,2.95C2.88,21.89,0,29.12,0,35.08c0,.74,.04,1.46,.1,2.18,1.11,12.74,11.79,22.73,24.82,22.73,3.73,0,7.26-.82,10.43-2.29-11.56-1.61-20.48-11.42-20.72-23.36Z"/></svg>